<?xml version="1.0" standalone="no"?>
<!DOCTYPE svg PUBLIC "-//W3C//DTD SVG 20010904//EN"
 "http://www.w3.org/TR/2001/REC-SVG-20010904/DTD/svg10.dtd">
<svg version="1.0" xmlns="http://www.w3.org/2000/svg"
 width="512.000000pt" height="512.000000pt" viewBox="0 0 512.000000 512.000000"
 preserveAspectRatio="xMidYMid meet">

<g transform="translate(0.000000,512.000000) scale(0.100000,-0.100000)"
fill="#000000" stroke="none">
<path d="M2165 4313 c-239 -7 -596 -34 -680 -52 -420 -88 -779 -372 -955 -754
-50 -111 -76 -193 -105 -333 -25 -117 -25 -126 -25 -619 0 -488 1 -503 24
-615 13 -63 36 -151 51 -195 109 -316 336 -586 633 -750 48 -27 89 -50 91 -52
3 -2 -6 -11 -20 -20 -45 -32 -141 -128 -187 -188 -62 -83 -137 -243 -163 -350
-14 -57 -22 -125 -23 -185 -1 -85 1 -98 23 -129 13 -18 42 -42 65 -52 39 -18
103 -19 1666 -19 1563 0 1627 1 1666 19 23 10 52 34 65 52 22 31 24 44 23 129
-2 125 -32 249 -93 375 -59 123 -118 203 -223 299 l-80 74 83 43 c233 122 451
345 574 588 49 99 91 226 120 363 25 122 25 126 25 623 0 494 0 503 -24 615
-33 154 -57 224 -121 357 -180 370 -535 643 -945 727 -200 41 -918 65 -1465
49z m890 -323 c514 -29 582 -39 744 -116 283 -133 485 -374 569 -680 l27 -99
0 -530 c0 -525 0 -531 -24 -619 -79 -301 -260 -535 -522 -675 -230 -124 -426
-146 -1299 -146 -705 1 -957 17 -1123 74 -150 52 -279 133 -398 251 -159 157
-257 343 -294 557 -21 123 -22 957 0 1088 47 290 210 544 453 703 211 139 320
163 872 192 193 10 817 10 995 0z m459 -3210 c180 -46 337 -171 414 -330 22
-47 44 -95 47 -107 l6 -23 -1421 0 -1421 0 6 23 c3 12 25 60 47 107 77 158
233 283 410 330 69 18 120 19 954 19 845 1 884 0 958 -19z"/>
<path d="M1772 2864 c-18 -10 -45 -33 -60 -52 l-27 -35 0 -217 0 -217 27 -35
c73 -95 220 -81 268 25 17 37 20 66 20 227 0 208 -10 247 -70 290 -42 30 -114
36 -158 14z"/>
<path d="M3212 2864 c-18 -10 -45 -33 -60 -52 l-27 -35 0 -217 0 -217 27 -35
c73 -95 220 -81 268 25 17 37 20 66 20 227 0 208 -10 247 -70 290 -42 30 -114
36 -158 14z"/>
<path d="M2332 1903 c-57 -28 -87 -78 -87 -142 0 -69 29 -115 89 -142 35 -16
67 -19 226 -19 161 0 190 3 227 20 106 48 120 195 25 268 l-35 27 -206 3
c-176 2 -211 0 -239 -15z"/>
</g>
</svg>
